<svg xmlns="http://www.w3.org/2000/svg" viewBox="206 51 33 37" width="100%" height="100%">
<circle cx="206" cy="51" r="0.28" fill="#c8c5be" />
<circle cx="207" cy="51" r="0.28" fill="#c8c5be" />
<circle cx="208" cy="51" r="0.28" fill="#c8c5be" />
<circle cx="209" cy="51" r="0.28" fill="#c8c5be" />
<circle cx="210" cy="51" r="0.28" fill="#c8c5be" />
<circle cx="211" cy="51" r="0.28" fill="#c8c5be" />
<circle cx="212" cy="51" r="0.28" fill="#c8c5be" />
<circle cx="213" cy="51" r="0.28" fill="#c8c5be" />
<circle cx="214" cy="51" r="0.28" fill="#c8c5be" />
<circle cx="215" cy="51" r="0.28" fill="#c8c5be" />
<circle cx="216" cy="51" r="0.28" fill="#c8c5be" />
<circle cx="217" cy="51" r="0.28" fill="#c8c5be" />
<circle cx="218" cy="51" r="0.28" fill="#c8c5be" />
<circle cx="219" cy="51" r="0.28" fill="#c8c5be" />
<circle cx="220" cy="51" r="0.28" fill="#c8c5be" />
<circle cx="221" cy="51" r="0.28" fill="#c8c5be" />
<circle cx="222" cy="51" r="0.28" fill="#c8c5be" />
<circle cx="223" cy="51" r="0.28" fill="#c8c5be" />
<circle cx="224" cy="51" r="0.28" fill="#c8c5be" />
<circle cx="225" cy="51" r="0.28" fill="#c8c5be" />
<circle cx="226" cy="51" r="0.28" fill="#c8c5be" />
<circle cx="227" cy="51" r="0.28" fill="#c8c5be" />
<circle cx="228" cy="51" r="0.28" fill="#c8c5be" />
<circle cx="229" cy="51" r="0.28" fill="#c8c5be" />
<circle cx="230" cy="51" r="0.28" fill="#c8c5be" />
<circle cx="231" cy="51" r="0.28" fill="#c8c5be" />
<circle cx="232" cy="51" r="0.28" fill="#c8c5be" />
<circle cx="233" cy="51" r="0.28" fill="#c8c5be" />
<circle cx="234" cy="51" r="0.28" fill="#c8c5be" />
<circle cx="235" cy="51" r="0.28" fill="#c8c5be" />
<circle cx="236" cy="51" r="0.28" fill="#c8c5be" />
<circle cx="237" cy="51" r="0.28" fill="#c8c5be" />
<circle cx="238" cy="51" r="0.28" fill="#c8c5be" />
<circle cx="239" cy="51" r="0.28" fill="#c8c5be" />
<circle cx="206" cy="52" r="0.28" fill="#c8c5be" />
<circle cx="207" cy="52" r="0.28" fill="#c8c5be" />
<circle cx="208" cy="52" r="0.28" fill="#c8c5be" />
<circle cx="209" cy="52" r="0.28" fill="#c8c5be" />
<circle cx="210" cy="52" r="0.28" fill="#c8c5be" />
<circle cx="211" cy="52" r="0.28" fill="#c8c5be" />
<circle cx="212" cy="52" r="0.28" fill="#c8c5be" />
<circle cx="213" cy="52" r="0.28" fill="#c8c5be" />
<circle cx="214" cy="52" r="0.28" fill="#c8c5be" />
<circle cx="215" cy="52" r="0.28" fill="#c8c5be" />
<circle cx="216" cy="52" r="0.28" fill="#c8c5be" />
<circle cx="217" cy="52" r="0.28" fill="#c8c5be" />
<circle cx="218" cy="52" r="0.28" fill="#c8c5be" />
<circle cx="219" cy="52" r="0.28" fill="#c8c5be" />
<circle cx="220" cy="52" r="0.28" fill="#c8c5be" />
<circle cx="221" cy="52" r="0.28" fill="#c8c5be" />
<circle cx="222" cy="52" r="0.28" fill="#c8c5be" />
<circle cx="223" cy="52" r="0.28" fill="#c8c5be" />
<circle cx="224" cy="52" r="0.28" fill="#c8c5be" />
<circle cx="225" cy="52" r="0.28" fill="#c8c5be" />
<circle cx="226" cy="52" r="0.28" fill="#c8c5be" />
<circle cx="227" cy="52" r="0.28" fill="#c8c5be" />
<circle cx="228" cy="52" r="0.28" fill="#c8c5be" />
<circle cx="229" cy="52" r="0.28" fill="#c8c5be" />
<circle cx="230" cy="52" r="0.28" fill="#c8c5be" />
<circle cx="231" cy="52" r="0.28" fill="#c8c5be" />
<circle cx="232" cy="52" r="0.28" fill="#c8c5be" />
<circle cx="233" cy="52" r="0.28" fill="#c8c5be" />
<circle cx="234" cy="52" r="0.28" fill="#c8c5be" />
<circle cx="235" cy="52" r="0.28" fill="#c8c5be" />
<circle cx="236" cy="52" r="0.28" fill="#c8c5be" />
<circle cx="237" cy="52" r="0.28" fill="#c8c5be" />
<circle cx="238" cy="52" r="0.28" fill="#c8c5be" />
<circle cx="239" cy="52" r="0.28" fill="#c8c5be" />
<circle cx="206" cy="53" r="0.28" fill="#c8c5be" />
<circle cx="207" cy="53" r="0.28" fill="#c8c5be" />
<circle cx="208" cy="53" r="0.28" fill="#c8c5be" />
<circle cx="209" cy="53" r="0.28" fill="#c8c5be" />
<circle cx="210" cy="53" r="0.28" fill="#c8c5be" />
<circle cx="211" cy="53" r="0.28" fill="#c8c5be" />
<circle cx="212" cy="53" r="0.28" fill="#c8c5be" />
<circle cx="213" cy="53" r="0.28" fill="#c8c5be" />
<circle cx="214" cy="53" r="0.28" fill="#c8c5be" />
<circle cx="215" cy="53" r="0.28" fill="#c8c5be" />
<circle cx="216" cy="53" r="0.28" fill="#c8c5be" />
<circle cx="217" cy="53" r="0.28" fill="#c8c5be" />
<circle cx="218" cy="53" r="0.28" fill="#c8c5be" />
<circle cx="219" cy="53" r="0.28" fill="#c8c5be" />
<circle cx="220" cy="53" r="0.28" fill="#c8c5be" />
<circle cx="221" cy="53" r="0.28" fill="#c8c5be" />
<circle cx="222" cy="53" r="0.28" fill="#c8c5be" />
<circle cx="223" cy="53" r="0.28" fill="#c8c5be" />
<circle cx="224" cy="53" r="0.28" fill="#c8c5be" />
<circle cx="225" cy="53" r="0.28" fill="#c8c5be" />
<circle cx="226" cy="53" r="0.28" fill="#c8c5be" />
<circle cx="227" cy="53" r="0.28" fill="#c8c5be" />
<circle cx="228" cy="53" r="0.28" fill="#c8c5be" />
<circle cx="229" cy="53" r="0.28" fill="#c8c5be" />
<circle cx="230" cy="53" r="0.28" fill="#c8c5be" />
<circle cx="231" cy="53" r="0.28" fill="#c8c5be" />
<circle cx="232" cy="53" r="0.28" fill="#c8c5be" />
<circle cx="233" cy="53" r="0.28" fill="#c8c5be" />
<circle cx="234" cy="53" r="0.28" fill="#c8c5be" />
<circle cx="235" cy="53" r="0.28" fill="#c8c5be" />
<circle cx="236" cy="53" r="0.28" fill="#c8c5be" />
<circle cx="237" cy="53" r="0.28" fill="#c8c5be" />
<circle cx="238" cy="53" r="0.28" fill="#c8c5be" />
<circle cx="239" cy="53" r="0.28" fill="#c8c5be" />
<circle cx="206" cy="54" r="0.28" fill="#c8c5be" />
<circle cx="207" cy="54" r="0.28" fill="#c8c5be" />
<circle cx="208" cy="54" r="0.28" fill="#c8c5be" />
<circle cx="209" cy="54" r="0.28" fill="#c8c5be" />
<circle cx="210" cy="54" r="0.28" fill="#c8c5be" />
<circle cx="211" cy="54" r="0.28" fill="#c8c5be" />
<circle cx="212" cy="54" r="0.28" fill="#c8c5be" />
<circle cx="213" cy="54" r="0.28" fill="#c8c5be" />
<circle cx="214" cy="54" r="0.28" fill="#c8c5be" />
<circle cx="215" cy="54" r="0.28" fill="#c8c5be" />
<circle cx="216" cy="54" r="0.28" fill="#c8c5be" />
<circle cx="217" cy="54" r="0.28" fill="#c8c5be" />
<circle cx="218" cy="54" r="0.28" fill="#c8c5be" />
<circle cx="219" cy="54" r="0.28" fill="#c8c5be" />
<circle cx="220" cy="54" r="0.28" fill="#c8c5be" />
<circle cx="221" cy="54" r="0.28" fill="#c8c5be" />
<circle cx="222" cy="54" r="0.28" fill="#c8c5be" />
<circle cx="223" cy="54" r="0.28" fill="#c8c5be" />
<circle cx="224" cy="54" r="0.28" fill="#c8c5be" />
<circle cx="225" cy="54" r="0.28" fill="#c8c5be" />
<circle cx="226" cy="54" r="0.28" fill="#c8c5be" />
<circle cx="227" cy="54" r="0.28" fill="#c8c5be" />
<circle cx="228" cy="54" r="0.28" fill="#c8c5be" />
<circle cx="229" cy="54" r="0.28" fill="#c8c5be" />
<circle cx="230" cy="54" r="0.28" fill="#c8c5be" />
<circle cx="231" cy="54" r="0.28" fill="#c8c5be" />
<circle cx="232" cy="54" r="0.28" fill="#c8c5be" />
<circle cx="233" cy="54" r="0.28" fill="#c8c5be" />
<circle cx="234" cy="54" r="0.28" fill="#c8c5be" />
<circle cx="235" cy="54" r="0.28" fill="#c8c5be" />
<circle cx="236" cy="54" r="0.28" fill="#c8c5be" />
<circle cx="237" cy="54" r="0.28" fill="#c8c5be" />
<circle cx="238" cy="54" r="0.28" fill="#c8c5be" />
<circle cx="239" cy="54" r="0.28" fill="#c8c5be" />
<circle cx="206" cy="55" r="0.28" fill="#c8c5be" />
<circle cx="207" cy="55" r="0.28" fill="#c8c5be" />
<circle cx="208" cy="55" r="0.28" fill="#c8c5be" />
<circle cx="209" cy="55" r="0.28" fill="#c8c5be" />
<circle cx="210" cy="55" r="0.28" fill="#c8c5be" />
<circle cx="211" cy="55" r="0.28" fill="#c8c5be" />
<circle cx="212" cy="55" r="0.28" fill="#c8c5be" />
<circle cx="213" cy="55" r="0.28" fill="#c8c5be" />
<circle cx="214" cy="55" r="0.28" fill="#c8c5be" />
<circle cx="215" cy="55" r="0.28" fill="#c8c5be" />
<circle cx="216" cy="55" r="0.28" fill="#c8c5be" />
<circle cx="217" cy="55" r="0.28" fill="#c8c5be" />
<circle cx="218" cy="55" r="0.28" fill="#c8c5be" />
<circle cx="219" cy="55" r="0.28" fill="#c8c5be" />
<circle cx="220" cy="55" r="0.28" fill="#c8c5be" />
<circle cx="221" cy="55" r="0.28" fill="#c8c5be" />
<circle cx="222" cy="55" r="0.28" fill="#c8c5be" />
<circle cx="223" cy="55" r="0.28" fill="#c8c5be" />
<circle cx="224" cy="55" r="0.28" fill="#c8c5be" />
<circle cx="225" cy="55" r="0.28" fill="#c8c5be" />
<circle cx="226" cy="55" r="0.28" fill="#c8c5be" />
<circle cx="227" cy="55" r="0.28" fill="#c8c5be" />
<circle cx="228" cy="55" r="0.28" fill="#c8c5be" />
<circle cx="229" cy="55" r="0.28" fill="#c8c5be" />
<circle cx="230" cy="55" r="0.28" fill="#c8c5be" />
<circle cx="231" cy="55" r="0.28" fill="#c8c5be" />
<circle cx="232" cy="55" r="0.28" fill="#c8c5be" />
<circle cx="233" cy="55" r="0.28" fill="#c8c5be" />
<circle cx="234" cy="55" r="0.28" fill="#c8c5be" />
<circle cx="235" cy="55" r="0.28" fill="#c8c5be" />
<circle cx="236" cy="55" r="0.28" fill="#c8c5be" />
<circle cx="237" cy="55" r="0.28" fill="#c8c5be" />
<circle cx="238" cy="55" r="0.28" fill="#c8c5be" />
<circle cx="239" cy="55" r="0.28" fill="#c8c5be" />
<circle cx="206" cy="56" r="0.28" fill="#c8c5be" />
<circle cx="207" cy="56" r="0.28" fill="#c8c5be" />
<circle cx="208" cy="56" r="0.28" fill="#c8c5be" />
<circle cx="209" cy="56" r="0.28" fill="#c8c5be" />
<circle cx="210" cy="56" r="0.28" fill="#c8c5be" />
<circle cx="211" cy="56" r="0.28" fill="#c8c5be" />
<circle cx="212" cy="56" r="0.28" fill="#c8c5be" />
<circle cx="213" cy="56" r="0.28" fill="#c8c5be" />
<circle cx="214" cy="56" r="0.28" fill="#c8c5be" />
<circle cx="215" cy="56" r="0.28" fill="#c8c5be" />
<circle cx="216" cy="56" r="0.28" fill="#c8c5be" />
<circle cx="217" cy="56" r="0.28" fill="#c8c5be" />
<circle cx="218" cy="56" r="0.28" fill="#c8c5be" />
<circle cx="219" cy="56" r="0.28" fill="#c8c5be" />
<circle cx="220" cy="56" r="0.28" fill="#c8c5be" />
<circle cx="221" cy="56" r="0.28" fill="#c8c5be" />
<circle cx="222" cy="56" r="0.28" fill="#c8c5be" />
<circle cx="223" cy="56" r="0.28" fill="#c8c5be" />
<circle cx="224" cy="56" r="0.28" fill="#c8c5be" />
<circle cx="225" cy="56" r="0.28" fill="#c8c5be" />
<circle cx="226" cy="56" r="0.28" fill="#c8c5be" />
<circle cx="227" cy="56" r="0.28" fill="#c8c5be" />
<circle cx="228" cy="56" r="0.28" fill="#c8c5be" />
<circle cx="229" cy="56" r="0.28" fill="#c8c5be" />
<circle cx="230" cy="56" r="0.28" fill="#c8c5be" />
<circle cx="231" cy="56" r="0.28" fill="#c8c5be" />
<circle cx="232" cy="56" r="0.28" fill="#c8c5be" />
<circle cx="233" cy="56" r="0.28" fill="#c8c5be" />
<circle cx="234" cy="56" r="0.28" fill="#c8c5be" />
<circle cx="235" cy="56" r="0.28" fill="#c8c5be" />
<circle cx="236" cy="56" r="0.28" fill="#c8c5be" />
<circle cx="237" cy="56" r="0.28" fill="#c8c5be" />
<circle cx="238" cy="56" r="0.28" fill="#c8c5be" />
<circle cx="239" cy="56" r="0.28" fill="#c8c5be" />
<circle cx="206" cy="57" r="0.28" fill="#c8c5be" />
<circle cx="207" cy="57" r="0.28" fill="#c8c5be" />
<circle cx="208" cy="57" r="0.28" fill="#c8c5be" />
<circle cx="209" cy="57" r="0.28" fill="#c8c5be" />
<circle cx="210" cy="57" r="0.28" fill="#c8c5be" />
<circle cx="211" cy="57" r="0.28" fill="#c8c5be" />
<circle cx="212" cy="57" r="0.28" fill="#c8c5be" />
<circle cx="213" cy="57" r="0.28" fill="#c8c5be" />
<circle cx="214" cy="57" r="0.28" fill="#c8c5be" />
<circle cx="215" cy="57" r="0.28" fill="#c8c5be" />
<circle cx="216" cy="57" r="0.28" fill="#c8c5be" />
<circle cx="217" cy="57" r="0.28" fill="#c8c5be" />
<circle cx="218" cy="57" r="0.28" fill="#c8c5be" />
<circle cx="219" cy="57" r="0.28" fill="#c8c5be" />
<circle cx="220" cy="57" r="0.28" fill="#c8c5be" />
<circle cx="221" cy="57" r="0.28" fill="#c8c5be" />
<circle cx="222" cy="57" r="0.28" fill="#c8c5be" />
<circle cx="223" cy="57" r="0.28" fill="#c8c5be" />
<circle cx="224" cy="57" r="0.28" fill="#c8c5be" />
<circle cx="225" cy="57" r="0.28" fill="#c8c5be" />
<circle cx="226" cy="57" r="0.28" fill="#c8c5be" />
<circle cx="227" cy="57" r="0.28" fill="#c8c5be" />
<circle cx="228" cy="57" r="0.28" fill="#c8c5be" />
<circle cx="229" cy="57" r="0.28" fill="#c8c5be" />
<circle cx="230" cy="57" r="0.28" fill="#c8c5be" />
<circle cx="231" cy="57" r="0.28" fill="#c8c5be" />
<circle cx="232" cy="57" r="0.28" fill="#c8c5be" />
<circle cx="233" cy="57" r="0.28" fill="#c8c5be" />
<circle cx="234" cy="57" r="0.28" fill="#c8c5be" />
<circle cx="235" cy="57" r="0.28" fill="#c8c5be" />
<circle cx="236" cy="57" r="0.28" fill="#c8c5be" />
<circle cx="237" cy="57" r="0.28" fill="#c8c5be" />
<circle cx="238" cy="57" r="0.28" fill="#c8c5be" />
<circle cx="239" cy="57" r="0.28" fill="#c8c5be" />
<circle cx="206" cy="58" r="0.28" fill="#c8c5be" />
<circle cx="207" cy="58" r="0.28" fill="#c8c5be" />
<circle cx="208" cy="58" r="0.28" fill="#c8c5be" />
<circle cx="209" cy="58" r="0.28" fill="#c8c5be" />
<circle cx="210" cy="58" r="0.28" fill="#c8c5be" />
<circle cx="211" cy="58" r="0.28" fill="#c8c5be" />
<circle cx="212" cy="58" r="0.28" fill="#c8c5be" />
<circle cx="213" cy="58" r="0.28" fill="#c8c5be" />
<circle cx="214" cy="58" r="0.28" fill="#c8c5be" />
<circle cx="215" cy="58" r="0.28" fill="#c8c5be" />
<circle cx="216" cy="58" r="0.28" fill="#c8c5be" />
<circle cx="217" cy="58" r="0.28" fill="#c8c5be" />
<circle cx="218" cy="58" r="0.28" fill="#c8c5be" />
<circle cx="219" cy="58" r="0.28" fill="#c8c5be" />
<circle cx="220" cy="58" r="0.28" fill="#c8c5be" />
<circle cx="221" cy="58" r="0.28" fill="#c8c5be" />
<circle cx="222" cy="58" r="0.28" fill="#c8c5be" />
<circle cx="223" cy="58" r="0.28" fill="#c8c5be" />
<circle cx="224" cy="58" r="0.28" fill="#c8c5be" />
<circle cx="225" cy="58" r="0.28" fill="#c8c5be" />
<circle cx="226" cy="58" r="0.28" fill="#c8c5be" />
<circle cx="227" cy="58" r="0.28" fill="#c8c5be" />
<circle cx="228" cy="58" r="0.28" fill="#c8c5be" />
<circle cx="229" cy="58" r="0.28" fill="#c8c5be" />
<circle cx="230" cy="58" r="0.28" fill="#c8c5be" />
<circle cx="231" cy="58" r="0.28" fill="#c8c5be" />
<circle cx="232" cy="58" r="0.28" fill="#c8c5be" />
<circle cx="233" cy="58" r="0.28" fill="#c8c5be" />
<circle cx="234" cy="58" r="0.28" fill="#c8c5be" />
<circle cx="235" cy="58" r="0.28" fill="#c8c5be" />
<circle cx="236" cy="58" r="0.28" fill="#c8c5be" />
<circle cx="237" cy="58" r="0.28" fill="#c8c5be" />
<circle cx="238" cy="58" r="0.28" fill="#c8c5be" />
<circle cx="239" cy="58" r="0.28" fill="#c8c5be" />
<circle cx="206" cy="59" r="0.28" fill="#c8c5be" />
<circle cx="207" cy="59" r="0.28" fill="#c8c5be" />
<circle cx="208" cy="59" r="0.28" fill="#c8c5be" />
<circle cx="209" cy="59" r="0.28" fill="#c8c5be" />
<circle cx="210" cy="59" r="0.28" fill="#c8c5be" />
<circle cx="211" cy="59" r="0.28" fill="#c8c5be" />
<circle cx="212" cy="59" r="0.28" fill="#c8c5be" />
<circle cx="213" cy="59" r="0.28" fill="#c8c5be" />
<circle cx="214" cy="59" r="0.28" fill="#c8c5be" />
<circle cx="215" cy="59" r="0.28" fill="#c8c5be" />
<circle cx="216" cy="59" r="0.28" fill="#c8c5be" />
<circle cx="217" cy="59" r="0.28" fill="#c8c5be" />
<circle cx="218" cy="59" r="0.28" fill="#c8c5be" />
<circle cx="219" cy="59" r="0.28" fill="#c8c5be" />
<circle cx="220" cy="59" r="0.28" fill="#c8c5be" />
<circle cx="221" cy="59" r="0.28" fill="#c8c5be" />
<circle cx="222" cy="59" r="0.28" fill="#c8c5be" />
<circle cx="223" cy="59" r="0.28" fill="#c8c5be" />
<circle cx="224" cy="59" r="0.28" fill="#c8c5be" />
<circle cx="225" cy="59" r="0.28" fill="#c8c5be" />
<circle cx="226" cy="59" r="0.28" fill="#c8c5be" />
<circle cx="227" cy="59" r="0.28" fill="#c8c5be" />
<circle cx="228" cy="59" r="0.28" fill="#c8c5be" />
<circle cx="229" cy="59" r="0.28" fill="#c8c5be" />
<circle cx="230" cy="59" r="0.28" fill="#c8c5be" />
<circle cx="231" cy="59" r="0.28" fill="#c8c5be" />
<circle cx="232" cy="59" r="0.28" fill="#c8c5be" />
<circle cx="233" cy="59" r="0.28" fill="#c8c5be" />
<circle cx="234" cy="59" r="0.28" fill="#c8c5be" />
<circle cx="235" cy="59" r="0.28" fill="#c8c5be" />
<circle cx="236" cy="59" r="0.28" fill="#c8c5be" />
<circle cx="237" cy="59" r="0.28" fill="#c8c5be" />
<circle cx="238" cy="59" r="0.28" fill="#c8c5be" />
<circle cx="239" cy="59" r="0.28" fill="#c8c5be" />
<circle cx="206" cy="60" r="0.28" fill="#c8c5be" />
<circle cx="207" cy="60" r="0.28" fill="#c8c5be" />
<circle cx="208" cy="60" r="0.28" fill="#c8c5be" />
<circle cx="209" cy="60" r="0.28" fill="#c8c5be" />
<circle cx="210" cy="60" r="0.28" fill="#c8c5be" />
<circle cx="211" cy="60" r="0.28" fill="#c8c5be" />
<circle cx="212" cy="60" r="0.28" fill="#c8c5be" />
<circle cx="213" cy="60" r="0.28" fill="#c8c5be" />
<circle cx="214" cy="60" r="0.28" fill="#c8c5be" />
<circle cx="215" cy="60" r="0.28" fill="#c8c5be" />
<circle cx="216" cy="60" r="0.28" fill="#c8c5be" />
<circle cx="217" cy="60" r="0.28" fill="#c8c5be" />
<circle cx="218" cy="60" r="0.28" fill="#c8c5be" />
<circle cx="219" cy="60" r="0.28" fill="#c8c5be" />
<circle cx="220" cy="60" r="0.28" fill="#c8c5be" />
<circle cx="221" cy="60" r="0.28" fill="#c8c5be" />
<circle cx="222" cy="60" r="0.28" fill="#c8c5be" />
<circle cx="223" cy="60" r="0.28" fill="#c8c5be" />
<circle cx="224" cy="60" r="0.28" fill="#c8c5be" />
<circle cx="225" cy="60" r="0.28" fill="#c8c5be" />
<circle cx="226" cy="60" r="0.28" fill="#c8c5be" />
<circle cx="227" cy="60" r="0.28" fill="#c8c5be" />
<circle cx="228" cy="60" r="0.28" fill="#c8c5be" />
<circle cx="229" cy="60" r="0.28" fill="#c8c5be" />
<circle cx="230" cy="60" r="0.28" fill="#c8c5be" />
<circle cx="231" cy="60" r="0.28" fill="#c8c5be" />
<circle cx="232" cy="60" r="0.28" fill="#c8c5be" />
<circle cx="233" cy="60" r="0.28" fill="#c8c5be" />
<circle cx="234" cy="60" r="0.28" fill="#c8c5be" />
<circle cx="235" cy="60" r="0.28" fill="#c8c5be" />
<circle cx="236" cy="60" r="0.28" fill="#c8c5be" />
<circle cx="237" cy="60" r="0.28" fill="#c8c5be" />
<circle cx="238" cy="60" r="0.28" fill="#c8c5be" />
<circle cx="239" cy="60" r="0.28" fill="#c8c5be" />
<circle cx="206" cy="61" r="0.28" fill="#c8c5be" />
<circle cx="207" cy="61" r="0.28" fill="#c8c5be" />
<circle cx="208" cy="61" r="0.28" fill="#c8c5be" />
<circle cx="209" cy="61" r="0.28" fill="#c8c5be" />
<circle cx="210" cy="61" r="0.28" fill="#c8c5be" />
<circle cx="211" cy="61" r="0.28" fill="#c8c5be" />
<circle cx="212" cy="61" r="0.28" fill="#c8c5be" />
<circle cx="213" cy="61" r="0.28" fill="#c8c5be" />
<circle cx="214" cy="61" r="0.28" fill="#c8c5be" />
<circle cx="215" cy="61" r="0.28" fill="#c8c5be" />
<circle cx="216" cy="61" r="0.28" fill="#c8c5be" />
<circle cx="217" cy="61" r="0.28" fill="#c8c5be" />
<circle cx="218" cy="61" r="0.28" fill="#c8c5be" />
<circle cx="219" cy="61" r="0.28" fill="#c8c5be" />
<circle cx="220" cy="61" r="0.28" fill="#c8c5be" />
<circle cx="221" cy="61" r="0.28" fill="#c8c5be" />
<circle cx="222" cy="61" r="0.28" fill="#c8c5be" />
<circle cx="223" cy="61" r="0.28" fill="#c8c5be" />
<circle cx="224" cy="61" r="0.28" fill="#c8c5be" />
<circle cx="225" cy="61" r="0.28" fill="#c8c5be" />
<circle cx="226" cy="61" r="0.28" fill="#c8c5be" />
<circle cx="227" cy="61" r="0.28" fill="#c8c5be" />
<circle cx="228" cy="61" r="0.28" fill="#c8c5be" />
<circle cx="229" cy="61" r="0.28" fill="#c8c5be" />
<circle cx="230" cy="61" r="0.28" fill="#c8c5be" />
<circle cx="231" cy="61" r="0.28" fill="#c8c5be" />
<circle cx="232" cy="61" r="0.28" fill="#c8c5be" />
<circle cx="233" cy="61" r="0.28" fill="#c8c5be" />
<circle cx="234" cy="61" r="0.28" fill="#c8c5be" />
<circle cx="235" cy="61" r="0.28" fill="#c8c5be" />
<circle cx="236" cy="61" r="0.28" fill="#c8c5be" />
<circle cx="237" cy="61" r="0.28" fill="#c8c5be" />
<circle cx="238" cy="61" r="0.28" fill="#c8c5be" />
<circle cx="239" cy="61" r="0.28" fill="#c8c5be" />
<circle cx="206" cy="62" r="0.28" fill="#c8c5be" />
<circle cx="207" cy="62" r="0.28" fill="#c8c5be" />
<circle cx="208" cy="62" r="0.28" fill="#c8c5be" />
<circle cx="209" cy="62" r="0.28" fill="#c8c5be" />
<circle cx="210" cy="62" r="0.28" fill="#c8c5be" />
<circle cx="211" cy="62" r="0.28" fill="#c8c5be" />
<circle cx="212" cy="62" r="0.28" fill="#c8c5be" />
<circle cx="213" cy="62" r="0.28" fill="#c8c5be" />
<circle cx="214" cy="62" r="0.28" fill="#c8c5be" />
<circle cx="215" cy="62" r="0.28" fill="#c8c5be" />
<circle cx="216" cy="62" r="0.28" fill="#c8c5be" />
<circle cx="217" cy="62" r="0.28" fill="#c8c5be" />
<circle cx="218" cy="62" r="0.28" fill="#c8c5be" />
<circle cx="219" cy="62" r="0.28" fill="#c8c5be" />
<circle cx="220" cy="62" r="0.28" fill="#c8c5be" />
<circle cx="221" cy="62" r="0.28" fill="#c8c5be" />
<circle cx="222" cy="62" r="0.28" fill="#c8c5be" />
<circle cx="223" cy="62" r="0.28" fill="#c8c5be" />
<circle cx="224" cy="62" r="0.28" fill="#c8c5be" />
<circle cx="225" cy="62" r="0.28" fill="#c8c5be" />
<circle cx="226" cy="62" r="0.28" fill="#c8c5be" />
<circle cx="227" cy="62" r="0.28" fill="#c8c5be" />
<circle cx="228" cy="62" r="0.28" fill="#c8c5be" />
<circle cx="229" cy="62" r="0.28" fill="#c8c5be" />
<circle cx="230" cy="62" r="0.28" fill="#c8c5be" />
<circle cx="231" cy="62" r="0.28" fill="#c8c5be" />
<circle cx="232" cy="62" r="0.28" fill="#c8c5be" />
<circle cx="233" cy="62" r="0.28" fill="#c8c5be" />
<circle cx="234" cy="62" r="0.28" fill="#c8c5be" />
<circle cx="235" cy="62" r="0.28" fill="#c8c5be" />
<circle cx="236" cy="62" r="0.28" fill="#c8c5be" />
<circle cx="237" cy="62" r="0.28" fill="#c8c5be" />
<circle cx="238" cy="62" r="0.28" fill="#c8c5be" />
<circle cx="239" cy="62" r="0.28" fill="#c8c5be" />
<circle cx="206" cy="63" r="0.28" fill="#c8c5be" />
<circle cx="207" cy="63" r="0.28" fill="#c8c5be" />
<circle cx="208" cy="63" r="0.28" fill="#c8c5be" />
<circle cx="209" cy="63" r="0.28" fill="#c8c5be" />
<circle cx="210" cy="63" r="0.28" fill="#c8c5be" />
<circle cx="211" cy="63" r="0.28" fill="#c8c5be" />
<circle cx="212" cy="63" r="0.28" fill="#c8c5be" />
<circle cx="213" cy="63" r="0.28" fill="#c8c5be" />
<circle cx="214" cy="63" r="0.28" fill="#c8c5be" />
<circle cx="215" cy="63" r="0.28" fill="#c8c5be" />
<circle cx="216" cy="63" r="0.28" fill="#c8c5be" />
<circle cx="217" cy="63" r="0.28" fill="#c8c5be" />
<circle cx="218" cy="63" r="0.28" fill="#c8c5be" />
<circle cx="219" cy="63" r="0.28" fill="#c8c5be" />
<circle cx="220" cy="63" r="0.28" fill="#c8c5be" />
<circle cx="221" cy="63" r="0.28" fill="#c8c5be" />
<circle cx="222" cy="63" r="0.28" fill="#c8c5be" />
<circle cx="223" cy="63" r="0.28" fill="#c8c5be" />
<circle cx="224" cy="63" r="0.28" fill="#c8c5be" />
<circle cx="225" cy="63" r="0.28" fill="#c8c5be" />
<circle cx="226" cy="63" r="0.28" fill="#c8c5be" />
<circle cx="227" cy="63" r="0.28" fill="#c8c5be" />
<circle cx="228" cy="63" r="0.28" fill="#c8c5be" />
<circle cx="229" cy="63" r="0.28" fill="#c8c5be" />
<circle cx="230" cy="63" r="0.28" fill="#c8c5be" />
<circle cx="231" cy="63" r="0.28" fill="#c8c5be" />
<circle cx="232" cy="63" r="0.28" fill="#c8c5be" />
<circle cx="233" cy="63" r="0.28" fill="#c8c5be" />
<circle cx="234" cy="63" r="0.28" fill="#c8c5be" />
<circle cx="235" cy="63" r="0.28" fill="#c8c5be" />
<circle cx="236" cy="63" r="0.28" fill="#c8c5be" />
<circle cx="237" cy="63" r="0.28" fill="#c8c5be" />
<circle cx="238" cy="63" r="0.28" fill="#c8c5be" />
<circle cx="239" cy="63" r="0.28" fill="#c8c5be" />
<circle cx="206" cy="64" r="0.28" fill="#c8c5be" />
<circle cx="207" cy="64" r="0.28" fill="#c8c5be" />
<circle cx="208" cy="64" r="0.28" fill="#c8c5be" />
<circle cx="209" cy="64" r="0.28" fill="#c8c5be" />
<circle cx="210" cy="64" r="0.28" fill="#c8c5be" />
<circle cx="211" cy="64" r="0.28" fill="#c8c5be" />
<circle cx="212" cy="64" r="0.28" fill="#c8c5be" />
<circle cx="213" cy="64" r="0.28" fill="#c8c5be" />
<circle cx="214" cy="64" r="0.28" fill="#c8c5be" />
<circle cx="215" cy="64" r="0.28" fill="#c8c5be" />
<circle cx="216" cy="64" r="0.28" fill="#c8c5be" />
<circle cx="217" cy="64" r="0.28" fill="#c8c5be" />
<circle cx="218" cy="64" r="0.28" fill="#c8c5be" />
<circle cx="219" cy="64" r="0.28" fill="#c8c5be" />
<circle cx="220" cy="64" r="0.28" fill="#c8c5be" />
<circle cx="221" cy="64" r="0.28" fill="#c8c5be" />
<circle cx="222" cy="64" r="0.28" fill="#c8c5be" />
<circle cx="223" cy="64" r="0.28" fill="#c8c5be" />
<circle cx="224" cy="64" r="0.28" fill="#c8c5be" />
<circle cx="225" cy="64" r="0.28" fill="#c8c5be" />
<circle cx="226" cy="64" r="0.28" fill="#c8c5be" />
<circle cx="227" cy="64" r="0.28" fill="#c8c5be" />
<circle cx="228" cy="64" r="0.28" fill="#c8c5be" />
<circle cx="229" cy="64" r="0.28" fill="#c8c5be" />
<circle cx="230" cy="64" r="0.28" fill="#c8c5be" />
<circle cx="231" cy="64" r="0.28" fill="#c8c5be" />
<circle cx="232" cy="64" r="0.28" fill="#c8c5be" />
<circle cx="233" cy="64" r="0.28" fill="#c8c5be" />
<circle cx="234" cy="64" r="0.28" fill="#c8c5be" />
<circle cx="235" cy="64" r="0.28" fill="#c8c5be" />
<circle cx="236" cy="64" r="0.28" fill="#c8c5be" />
<circle cx="237" cy="64" r="0.28" fill="#c8c5be" />
<circle cx="238" cy="64" r="0.28" fill="#c8c5be" />
<circle cx="239" cy="64" r="0.28" fill="#c8c5be" />
<circle cx="206" cy="65" r="0.28" fill="#c8c5be" />
<circle cx="207" cy="65" r="0.28" fill="#c8c5be" />
<circle cx="208" cy="65" r="0.28" fill="#c8c5be" />
<circle cx="209" cy="65" r="0.28" fill="#c8c5be" />
<circle cx="210" cy="65" r="0.28" fill="#c8c5be" />
<circle cx="211" cy="65" r="0.28" fill="#c8c5be" />
<circle cx="212" cy="65" r="0.28" fill="#c8c5be" />
<circle cx="213" cy="65" r="0.28" fill="#c8c5be" />
<circle cx="214" cy="65" r="0.28" fill="#c8c5be" />
<circle cx="215" cy="65" r="0.28" fill="#c8c5be" />
<circle cx="216" cy="65" r="0.28" fill="#c8c5be" />
<circle cx="217" cy="65" r="0.28" fill="#c8c5be" />
<circle cx="218" cy="65" r="0.28" fill="#c8c5be" />
<circle cx="219" cy="65" r="0.28" fill="#c8c5be" />
<circle cx="220" cy="65" r="0.28" fill="#c8c5be" />
<circle cx="221" cy="65" r="0.28" fill="#c8c5be" />
<circle cx="222" cy="65" r="0.28" fill="#c8c5be" />
<circle cx="223" cy="65" r="0.28" fill="#c8c5be" />
<circle cx="224" cy="65" r="0.28" fill="#c8c5be" />
<circle cx="225" cy="65" r="0.28" fill="#c8c5be" />
<circle cx="226" cy="65" r="0.28" fill="#c8c5be" />
<circle cx="227" cy="65" r="0.28" fill="#c8c5be" />
<circle cx="228" cy="65" r="0.28" fill="#c8c5be" />
<circle cx="229" cy="65" r="0.28" fill="#c8c5be" />
<circle cx="230" cy="65" r="0.28" fill="#c8c5be" />
<circle cx="231" cy="65" r="0.28" fill="#c8c5be" />
<circle cx="232" cy="65" r="0.28" fill="#c8c5be" />
<circle cx="233" cy="65" r="0.28" fill="#c8c5be" />
<circle cx="234" cy="65" r="0.28" fill="#c8c5be" />
<circle cx="235" cy="65" r="0.28" fill="#c8c5be" />
<circle cx="236" cy="65" r="0.28" fill="#c8c5be" />
<circle cx="237" cy="65" r="0.28" fill="#c8c5be" />
<circle cx="238" cy="65" r="0.28" fill="#c8c5be" />
<circle cx="239" cy="65" r="0.28" fill="#c8c5be" />
<circle cx="206" cy="66" r="0.28" fill="#c8c5be" />
<circle cx="207" cy="66" r="0.28" fill="#c8c5be" />
<circle cx="208" cy="66" r="0.28" fill="#c8c5be" />
<circle cx="209" cy="66" r="0.28" fill="#c8c5be" />
<circle cx="210" cy="66" r="0.28" fill="#c8c5be" />
<circle cx="211" cy="66" r="0.28" fill="#c8c5be" />
<circle cx="212" cy="66" r="0.28" fill="#c8c5be" />
<circle cx="213" cy="66" r="0.28" fill="#c8c5be" />
<circle cx="214" cy="66" r="0.28" fill="#c8c5be" />
<circle cx="215" cy="66" r="0.28" fill="#c8c5be" />
<circle cx="216" cy="66" r="0.28" fill="#c8c5be" />
<circle cx="217" cy="66" r="0.28" fill="#c8c5be" />
<circle cx="218" cy="66" r="0.28" fill="#c8c5be" />
<circle cx="219" cy="66" r="0.28" fill="#c8c5be" />
<circle cx="220" cy="66" r="0.28" fill="#c8c5be" />
<circle cx="221" cy="66" r="0.28" fill="#c8c5be" />
<circle cx="222" cy="66" r="0.28" fill="#c8c5be" />
<circle cx="223" cy="66" r="0.28" fill="#c8c5be" />
<circle cx="224" cy="66" r="0.28" fill="#c8c5be" />
<circle cx="225" cy="66" r="0.28" fill="#c8c5be" />
<circle cx="226" cy="66" r="0.28" fill="#c8c5be" />
<circle cx="227" cy="66" r="0.28" fill="#c8c5be" />
<circle cx="228" cy="66" r="0.28" fill="#c8c5be" />
<circle cx="229" cy="66" r="0.28" fill="#c8c5be" />
<circle cx="230" cy="66" r="0.28" fill="#c8c5be" />
<circle cx="231" cy="66" r="0.28" fill="#c8c5be" />
<circle cx="232" cy="66" r="0.28" fill="#c8c5be" />
<circle cx="233" cy="66" r="0.28" fill="#c8c5be" />
<circle cx="234" cy="66" r="0.28" fill="#c8c5be" />
<circle cx="235" cy="66" r="0.28" fill="#c8c5be" />
<circle cx="236" cy="66" r="0.28" fill="#c8c5be" />
<circle cx="237" cy="66" r="0.28" fill="#c8c5be" />
<circle cx="238" cy="66" r="0.28" fill="#c8c5be" />
<circle cx="239" cy="66" r="0.28" fill="#c8c5be" />
<circle cx="206" cy="67" r="0.28" fill="#c8c5be" />
<circle cx="207" cy="67" r="0.28" fill="#c8c5be" />
<circle cx="208" cy="67" r="0.28" fill="#c8c5be" />
<circle cx="209" cy="67" r="0.28" fill="#c8c5be" />
<circle cx="210" cy="67" r="0.28" fill="#c8c5be" />
<circle cx="211" cy="67" r="0.28" fill="#c8c5be" />
<circle cx="212" cy="67" r="0.28" fill="#c8c5be" />
<circle cx="213" cy="67" r="0.28" fill="#c8c5be" />
<circle cx="214" cy="67" r="0.28" fill="#c8c5be" />
<circle cx="215" cy="67" r="0.28" fill="#c8c5be" />
<circle cx="216" cy="67" r="0.28" fill="#c8c5be" />
<circle cx="217" cy="67" r="0.28" fill="#c8c5be" />
<circle cx="218" cy="67" r="0.28" fill="#c8c5be" />
<circle cx="219" cy="67" r="0.28" fill="#c8c5be" />
<circle cx="220" cy="67" r="0.28" fill="#c8c5be" />
<circle cx="221" cy="67" r="0.28" fill="#c8c5be" />
<circle cx="222" cy="67" r="0.28" fill="#c8c5be" />
<circle cx="223" cy="67" r="0.28" fill="#c8c5be" />
<circle cx="224" cy="67" r="0.28" fill="#c8c5be" />
<circle cx="225" cy="67" r="0.28" fill="#c8c5be" />
<circle cx="226" cy="67" r="0.28" fill="#c8c5be" />
<circle cx="227" cy="67" r="0.28" fill="#c8c5be" />
<circle cx="228" cy="67" r="0.28" fill="#c8c5be" />
<circle cx="229" cy="67" r="0.28" fill="#c8c5be" />
<circle cx="230" cy="67" r="0.28" fill="#c8c5be" />
<circle cx="231" cy="67" r="0.28" fill="#c8c5be" />
<circle cx="232" cy="67" r="0.28" fill="#c8c5be" />
<circle cx="233" cy="67" r="0.28" fill="#c8c5be" />
<circle cx="234" cy="67" r="0.28" fill="#c8c5be" />
<circle cx="235" cy="67" r="0.28" fill="#c8c5be" />
<circle cx="236" cy="67" r="0.28" fill="#c8c5be" />
<circle cx="237" cy="67" r="0.28" fill="#c8c5be" />
<circle cx="238" cy="67" r="0.28" fill="#c8c5be" />
<circle cx="239" cy="67" r="0.28" fill="#c8c5be" />
<circle cx="208" cy="68" r="0.28" fill="#c8c5be" />
<circle cx="209" cy="68" r="0.28" fill="#c8c5be" />
<circle cx="210" cy="68" r="0.28" fill="#c8c5be" />
<circle cx="211" cy="68" r="0.28" fill="#c8c5be" />
<circle cx="212" cy="68" r="0.28" fill="#c8c5be" />
<circle cx="213" cy="68" r="0.28" fill="#c8c5be" />
<circle cx="214" cy="68" r="0.28" fill="#c8c5be" />
<circle cx="215" cy="68" r="0.28" fill="#c8c5be" />
<circle cx="216" cy="68" r="0.28" fill="#c8c5be" />
<circle cx="217" cy="68" r="0.28" fill="#c8c5be" />
<circle cx="218" cy="68" r="0.28" fill="#c8c5be" />
<circle cx="219" cy="68" r="0.28" fill="#c8c5be" />
<circle cx="220" cy="68" r="0.28" fill="#c8c5be" />
<circle cx="221" cy="68" r="0.28" fill="#c8c5be" />
<circle cx="222" cy="68" r="0.28" fill="#c8c5be" />
<circle cx="223" cy="68" r="0.28" fill="#c8c5be" />
<circle cx="224" cy="68" r="0.28" fill="#c8c5be" />
<circle cx="225" cy="68" r="0.28" fill="#c8c5be" />
<circle cx="226" cy="68" r="0.28" fill="#c8c5be" />
<circle cx="227" cy="68" r="0.28" fill="#c8c5be" />
<circle cx="228" cy="68" r="0.28" fill="#c8c5be" />
<circle cx="229" cy="68" r="0.28" fill="#c8c5be" />
<circle cx="230" cy="68" r="0.28" fill="#c8c5be" />
<circle cx="231" cy="68" r="0.28" fill="#c8c5be" />
<circle cx="232" cy="68" r="0.28" fill="#c8c5be" />
<circle cx="233" cy="68" r="0.28" fill="#c8c5be" />
<circle cx="234" cy="68" r="0.28" fill="#c8c5be" />
<circle cx="235" cy="68" r="0.28" fill="#c8c5be" />
<circle cx="236" cy="68" r="0.28" fill="#c8c5be" />
<circle cx="237" cy="68" r="0.28" fill="#c8c5be" />
<circle cx="238" cy="68" r="0.28" fill="#c8c5be" />
<circle cx="239" cy="68" r="0.28" fill="#c8c5be" />
<circle cx="210" cy="69" r="0.28" fill="#c8c5be" />
<circle cx="211" cy="69" r="0.28" fill="#c8c5be" />
<circle cx="212" cy="69" r="0.28" fill="#c8c5be" />
<circle cx="213" cy="69" r="0.28" fill="#c8c5be" />
<circle cx="214" cy="69" r="0.28" fill="#c8c5be" />
<circle cx="215" cy="69" r="0.28" fill="#c8c5be" />
<circle cx="216" cy="69" r="0.28" fill="#c8c5be" />
<circle cx="217" cy="69" r="0.28" fill="#c8c5be" />
<circle cx="218" cy="69" r="0.28" fill="#c8c5be" />
<circle cx="219" cy="69" r="0.28" fill="#c8c5be" />
<circle cx="220" cy="69" r="0.28" fill="#c8c5be" />
<circle cx="221" cy="69" r="0.28" fill="#c8c5be" />
<circle cx="222" cy="69" r="0.28" fill="#c8c5be" />
<circle cx="223" cy="69" r="0.28" fill="#c8c5be" />
<circle cx="224" cy="69" r="0.28" fill="#c8c5be" />
<circle cx="225" cy="69" r="0.28" fill="#c8c5be" />
<circle cx="226" cy="69" r="0.28" fill="#c8c5be" />
<circle cx="227" cy="69" r="0.28" fill="#c8c5be" />
<circle cx="228" cy="69" r="0.28" fill="#c8c5be" />
<circle cx="229" cy="69" r="0.28" fill="#c8c5be" />
<circle cx="230" cy="69" r="0.28" fill="#c8c5be" />
<circle cx="231" cy="69" r="0.28" fill="#c8c5be" />
<circle cx="232" cy="69" r="0.28" fill="#c8c5be" />
<circle cx="233" cy="69" r="0.28" fill="#c8c5be" />
<circle cx="234" cy="69" r="0.28" fill="#c8c5be" />
<circle cx="235" cy="69" r="0.28" fill="#c8c5be" />
<circle cx="236" cy="69" r="0.28" fill="#c8c5be" />
<circle cx="237" cy="69" r="0.28" fill="#c8c5be" />
<circle cx="238" cy="69" r="0.28" fill="#c8c5be" />
<circle cx="239" cy="69" r="0.28" fill="#c8c5be" />
<circle cx="211" cy="70" r="0.28" fill="#c8c5be" />
<circle cx="212" cy="70" r="0.28" fill="#c8c5be" />
<circle cx="213" cy="70" r="0.28" fill="#c8c5be" />
<circle cx="214" cy="70" r="0.28" fill="#c8c5be" />
<circle cx="215" cy="70" r="0.28" fill="#c8c5be" />
<circle cx="216" cy="70" r="0.28" fill="#c8c5be" />
<circle cx="217" cy="70" r="0.28" fill="#c8c5be" />
<circle cx="218" cy="70" r="0.28" fill="#c8c5be" />
<circle cx="219" cy="70" r="0.28" fill="#c8c5be" />
<circle cx="220" cy="70" r="0.28" fill="#c8c5be" />
<circle cx="221" cy="70" r="0.28" fill="#c8c5be" />
<circle cx="222" cy="70" r="0.28" fill="#c8c5be" />
<circle cx="223" cy="70" r="0.28" fill="#c8c5be" />
<circle cx="224" cy="70" r="0.28" fill="#c8c5be" />
<circle cx="225" cy="70" r="0.28" fill="#c8c5be" />
<circle cx="226" cy="70" r="0.28" fill="#c8c5be" />
<circle cx="227" cy="70" r="0.28" fill="#c8c5be" />
<circle cx="228" cy="70" r="0.28" fill="#c8c5be" />
<circle cx="230" cy="70" r="0.28" fill="#c8c5be" />
<circle cx="231" cy="70" r="0.28" fill="#c8c5be" />
<circle cx="232" cy="70" r="0.28" fill="#c8c5be" />
<circle cx="233" cy="70" r="0.28" fill="#c8c5be" />
<circle cx="234" cy="70" r="0.28" fill="#c8c5be" />
<circle cx="235" cy="70" r="0.28" fill="#c8c5be" />
<circle cx="236" cy="70" r="0.28" fill="#c8c5be" />
<circle cx="237" cy="70" r="0.28" fill="#c8c5be" />
<circle cx="238" cy="70" r="0.28" fill="#c8c5be" />
<circle cx="239" cy="70" r="0.28" fill="#c8c5be" />
<circle cx="211" cy="71" r="0.28" fill="#c8c5be" />
<circle cx="212" cy="71" r="0.28" fill="#c8c5be" />
<circle cx="213" cy="71" r="0.28" fill="#c8c5be" />
<circle cx="214" cy="71" r="0.28" fill="#c8c5be" />
<circle cx="215" cy="71" r="0.28" fill="#c8c5be" />
<circle cx="216" cy="71" r="0.28" fill="#c8c5be" />
<circle cx="217" cy="71" r="0.28" fill="#c8c5be" />
<circle cx="218" cy="71" r="0.28" fill="#c8c5be" />
<circle cx="219" cy="71" r="0.28" fill="#c8c5be" />
<circle cx="220" cy="71" r="0.28" fill="#c8c5be" />
<circle cx="221" cy="71" r="0.28" fill="#c8c5be" />
<circle cx="222" cy="71" r="0.28" fill="#c8c5be" />
<circle cx="223" cy="71" r="0.28" fill="#c8c5be" />
<circle cx="224" cy="71" r="0.28" fill="#c8c5be" />
<circle cx="225" cy="71" r="0.28" fill="#c8c5be" />
<circle cx="230" cy="71" r="0.28" fill="#c8c5be" />
<circle cx="231" cy="71" r="0.28" fill="#c8c5be" />
<circle cx="232" cy="71" r="0.28" fill="#c8c5be" />
<circle cx="233" cy="71" r="0.28" fill="#c8c5be" />
<circle cx="234" cy="71" r="0.28" fill="#c8c5be" />
<circle cx="235" cy="71" r="0.28" fill="#c8c5be" />
<circle cx="236" cy="71" r="0.28" fill="#c8c5be" />
<circle cx="237" cy="71" r="0.28" fill="#c8c5be" />
<circle cx="238" cy="71" r="0.28" fill="#c8c5be" />
<circle cx="239" cy="71" r="0.28" fill="#c8c5be" />
<circle cx="213" cy="72" r="0.28" fill="#c8c5be" />
<circle cx="214" cy="72" r="0.28" fill="#c8c5be" />
<circle cx="215" cy="72" r="0.28" fill="#c8c5be" />
<circle cx="216" cy="72" r="0.28" fill="#c8c5be" />
<circle cx="217" cy="72" r="0.28" fill="#c8c5be" />
<circle cx="218" cy="72" r="0.28" fill="#c8c5be" />
<circle cx="219" cy="72" r="0.28" fill="#c8c5be" />
<circle cx="220" cy="72" r="0.28" fill="#c8c5be" />
<circle cx="221" cy="72" r="0.28" fill="#c8c5be" />
<circle cx="222" cy="72" r="0.28" fill="#c8c5be" />
<circle cx="223" cy="72" r="0.28" fill="#c8c5be" />
<circle cx="224" cy="72" r="0.28" fill="#c8c5be" />
<circle cx="225" cy="72" r="0.28" fill="#c8c5be" />
<circle cx="231" cy="72" r="0.28" fill="#c8c5be" />
<circle cx="232" cy="72" r="0.28" fill="#c8c5be" />
<circle cx="233" cy="72" r="0.28" fill="#c8c5be" />
<circle cx="234" cy="72" r="0.28" fill="#c8c5be" />
<circle cx="235" cy="72" r="0.28" fill="#c8c5be" />
<circle cx="236" cy="72" r="0.28" fill="#c8c5be" />
<circle cx="237" cy="72" r="0.28" fill="#c8c5be" />
<circle cx="238" cy="72" r="0.28" fill="#c8c5be" />
<circle cx="239" cy="72" r="0.28" fill="#c8c5be" />
<circle cx="213" cy="73" r="0.28" fill="#c8c5be" />
<circle cx="214" cy="73" r="0.28" fill="#c8c5be" />
<circle cx="215" cy="73" r="0.28" fill="#c8c5be" />
<circle cx="216" cy="73" r="0.28" fill="#c8c5be" />
<circle cx="217" cy="73" r="0.28" fill="#c8c5be" />
<circle cx="218" cy="73" r="0.28" fill="#c8c5be" />
<circle cx="219" cy="73" r="0.28" fill="#c8c5be" />
<circle cx="220" cy="73" r="0.28" fill="#c8c5be" />
<circle cx="221" cy="73" r="0.28" fill="#c8c5be" />
<circle cx="222" cy="73" r="0.28" fill="#c8c5be" />
<circle cx="223" cy="73" r="0.28" fill="#c8c5be" />
<circle cx="232" cy="73" r="0.28" fill="#c8c5be" />
<circle cx="233" cy="73" r="0.28" fill="#c8c5be" />
<circle cx="234" cy="73" r="0.28" fill="#c8c5be" />
<circle cx="235" cy="73" r="0.28" fill="#c8c5be" />
<circle cx="236" cy="73" r="0.28" fill="#c8c5be" />
<circle cx="237" cy="73" r="0.28" fill="#c8c5be" />
<circle cx="238" cy="73" r="0.28" fill="#c8c5be" />
<circle cx="239" cy="73" r="0.28" fill="#c8c5be" />
<circle cx="214" cy="74" r="0.28" fill="#c8c5be" />
<circle cx="215" cy="74" r="0.28" fill="#c8c5be" />
<circle cx="216" cy="74" r="0.28" fill="#c8c5be" />
<circle cx="217" cy="74" r="0.28" fill="#c8c5be" />
<circle cx="218" cy="74" r="0.28" fill="#c8c5be" />
<circle cx="219" cy="74" r="0.28" fill="#c8c5be" />
<circle cx="220" cy="74" r="0.28" fill="#c8c5be" />
<circle cx="221" cy="74" r="0.28" fill="#c8c5be" />
<circle cx="222" cy="74" r="0.28" fill="#c8c5be" />
<circle cx="232" cy="74" r="0.28" fill="#c8c5be" />
<circle cx="233" cy="74" r="0.28" fill="#c8c5be" />
<circle cx="234" cy="74" r="0.28" fill="#c8c5be" />
<circle cx="235" cy="74" r="0.28" fill="#c8c5be" />
<circle cx="236" cy="74" r="0.28" fill="#c8c5be" />
<circle cx="237" cy="74" r="0.28" fill="#c8c5be" />
<circle cx="238" cy="74" r="0.28" fill="#c8c5be" />
<circle cx="239" cy="74" r="0.28" fill="#c8c5be" />
<circle cx="214" cy="75" r="0.28" fill="#c8c5be" />
<circle cx="215" cy="75" r="0.28" fill="#c8c5be" />
<circle cx="216" cy="75" r="0.28" fill="#c8c5be" />
<circle cx="217" cy="75" r="0.28" fill="#c8c5be" />
<circle cx="218" cy="75" r="0.28" fill="#c8c5be" />
<circle cx="219" cy="75" r="0.28" fill="#c8c5be" />
<circle cx="220" cy="75" r="0.28" fill="#c8c5be" />
<circle cx="221" cy="75" r="0.28" fill="#c8c5be" />
<circle cx="233" cy="75" r="0.28" fill="#c8c5be" />
<circle cx="234" cy="75" r="0.28" fill="#c8c5be" />
<circle cx="235" cy="75" r="0.28" fill="#c8c5be" />
<circle cx="236" cy="75" r="0.28" fill="#c8c5be" />
<circle cx="237" cy="75" r="0.28" fill="#c8c5be" />
<circle cx="238" cy="75" r="0.28" fill="#c8c5be" />
<circle cx="239" cy="75" r="0.28" fill="#c8c5be" />
<circle cx="214" cy="76" r="0.28" fill="#c8c5be" />
<circle cx="215" cy="76" r="0.28" fill="#c8c5be" />
<circle cx="216" cy="76" r="0.28" fill="#c8c5be" />
<circle cx="217" cy="76" r="0.28" fill="#c8c5be" />
<circle cx="218" cy="76" r="0.28" fill="#c8c5be" />
<circle cx="219" cy="76" r="0.28" fill="#c8c5be" />
<circle cx="220" cy="76" r="0.28" fill="#c8c5be" />
<circle cx="232" cy="76" r="0.28" fill="#c8c5be" />
<circle cx="233" cy="76" r="0.28" fill="#c8c5be" />
<circle cx="235" cy="76" r="0.28" fill="#c8c5be" />
<circle cx="236" cy="76" r="0.28" fill="#c8c5be" />
<circle cx="237" cy="76" r="0.28" fill="#c8c5be" />
<circle cx="238" cy="76" r="0.28" fill="#c8c5be" />
<circle cx="239" cy="76" r="0.28" fill="#c8c5be" />
<circle cx="215" cy="77" r="0.28" fill="#c8c5be" />
<circle cx="216" cy="77" r="0.28" fill="#c8c5be" />
<circle cx="217" cy="77" r="0.28" fill="#c8c5be" />
<circle cx="218" cy="77" r="0.28" fill="#c8c5be" />
<circle cx="219" cy="77" r="0.28" fill="#c8c5be" />
<circle cx="235" cy="77" r="0.28" fill="#c8c5be" />
<circle cx="236" cy="77" r="0.28" fill="#c8c5be" />
<circle cx="237" cy="77" r="0.28" fill="#c8c5be" />
<circle cx="238" cy="77" r="0.28" fill="#c8c5be" />
<circle cx="239" cy="77" r="0.28" fill="#c8c5be" />
<circle cx="215" cy="78" r="0.28" fill="#c8c5be" />
<circle cx="216" cy="78" r="0.28" fill="#c8c5be" />
<circle cx="217" cy="78" r="0.28" fill="#c8c5be" />
<circle cx="218" cy="78" r="0.28" fill="#c8c5be" />
<circle cx="219" cy="78" r="0.28" fill="#c8c5be" />
<circle cx="236" cy="78" r="0.28" fill="#c8c5be" />
<circle cx="237" cy="78" r="0.28" fill="#c8c5be" />
<circle cx="238" cy="78" r="0.28" fill="#c8c5be" />
<circle cx="239" cy="78" r="0.28" fill="#c8c5be" />
<circle cx="215" cy="79" r="0.28" fill="#c8c5be" />
<circle cx="216" cy="79" r="0.28" fill="#c8c5be" />
<circle cx="217" cy="79" r="0.28" fill="#c8c5be" />
<circle cx="218" cy="79" r="0.28" fill="#c8c5be" />
<circle cx="219" cy="79" r="0.28" fill="#c8c5be" />
<circle cx="236" cy="79" r="0.28" fill="#c8c5be" />
<circle cx="238" cy="79" r="0.28" fill="#c8c5be" />
<circle cx="239" cy="79" r="0.28" fill="#c8c5be" />
<circle cx="216" cy="80" r="0.28" fill="#c8c5be" />
<circle cx="217" cy="80" r="0.28" fill="#c8c5be" />
<circle cx="218" cy="80" r="0.28" fill="#c8c5be" />
<circle cx="219" cy="80" r="0.28" fill="#c8c5be" />
<circle cx="236" cy="80" r="0.28" fill="#c8c5be" />
<circle cx="216" cy="81" r="0.28" fill="#c8c5be" />
<circle cx="217" cy="81" r="0.28" fill="#c8c5be" />
<circle cx="218" cy="81" r="0.28" fill="#c8c5be" />
<circle cx="219" cy="81" r="0.28" fill="#c8c5be" />
<circle cx="236" cy="81" r="0.28" fill="#c8c5be" />
<circle cx="217" cy="82" r="0.28" fill="#c8c5be" />
<circle cx="218" cy="82" r="0.28" fill="#c8c5be" />
<circle cx="236" cy="82" r="0.28" fill="#c8c5be" />
<circle cx="217" cy="83" r="0.28" fill="#c8c5be" />
<circle cx="219" cy="83" r="0.28" fill="#c8c5be" />
<circle cx="220" cy="83" r="0.28" fill="#c8c5be" />
<circle cx="236" cy="83" r="0.28" fill="#c8c5be" />
<circle cx="237" cy="83" r="0.28" fill="#c8c5be" />
<circle cx="220" cy="84" r="0.28" fill="#c8c5be" />
<circle cx="237" cy="84" r="0.28" fill="#c8c5be" />
<circle cx="238" cy="85" r="0.28" fill="#c8c5be" />
<circle cx="239" cy="85" r="0.28" fill="#c8c5be" />
<circle cx="233" cy="86" r="0.28" fill="#c8c5be" />
<circle cx="234" cy="86" r="0.28" fill="#c8c5be" />
<circle cx="235" cy="86" r="0.28" fill="#c8c5be" />
<circle cx="238" cy="86" r="0.28" fill="#c8c5be" />
<circle cx="239" cy="86" r="0.28" fill="#c8c5be" />
<circle cx="234" cy="87" r="0.28" fill="#c8c5be" />
<circle cx="235" cy="87" r="0.28" fill="#c8c5be" />
<circle cx="236" cy="87" r="0.28" fill="#c8c5be" />
<circle cx="238" cy="87" r="0.28" fill="#c8c5be" />
<circle cx="239" cy="87" r="0.28" fill="#c8c5be" />
<circle cx="235" cy="88" r="0.28" fill="#c8c5be" />
<circle cx="236" cy="88" r="0.28" fill="#c8c5be" />
<circle cx="237" cy="88" r="0.28" fill="#c8c5be" />
<circle cx="239" cy="88" r="0.28" fill="#c8c5be" />
</svg>